<mxfile host="app.diagrams.net" modified="2023-06-19T12:52:21.091Z" agent="Mozilla/5.0 (Windows NT 10.0; Win64; x64; rv:102.0) Gecko/20100101 Firefox/102.0" etag="J8I2YdS_b3BjxHR5QGqR" version="21.5.0" type="github" pages="2">
  <diagram name="Page-1" id="3ifD2pxqsWoWhPXdi1wA">
    <mxGraphModel dx="1899" dy="578" grid="1" gridSize="10" guides="1" tooltips="1" connect="1" arrows="1" fold="1" page="1" pageScale="1" pageWidth="850" pageHeight="1100" math="0" shadow="0">
      <root>
        <mxCell id="0" />
        <mxCell id="1" parent="0" />
        <mxCell id="XGC0C7EivsoRTgifj-aX-14" style="edgeStyle=orthogonalEdgeStyle;rounded=0;orthogonalLoop=1;jettySize=auto;html=1;exitX=1;exitY=0.5;exitDx=0;exitDy=0;exitPerimeter=0;" parent="1" source="XGC0C7EivsoRTgifj-aX-6" target="XGC0C7EivsoRTgifj-aX-13" edge="1">
          <mxGeometry relative="1" as="geometry" />
        </mxCell>
        <mxCell id="XGC0C7EivsoRTgifj-aX-6" value="" style="points=[[0.25,0,0],[0.5,0,0],[0.75,0,0],[1,0.25,0],[1,0.5,0],[1,0.75,0],[0.75,1,0],[0.5,1,0],[0.25,1,0],[0,0.75,0],[0,0.5,0],[0,0.25,0]];shape=mxgraph.bpmn.task;whiteSpace=wrap;rectStyle=rounded;size=10;html=1;container=0;expand=0;collapsible=0;taskMarker=abstract;" parent="1" vertex="1">
          <mxGeometry x="-190" y="290" width="280" height="130" as="geometry" />
        </mxCell>
        <mxCell id="jQWG2q-qJjAz_GA5LOOw-13" style="edgeStyle=orthogonalEdgeStyle;rounded=0;orthogonalLoop=1;jettySize=auto;html=1;exitX=1;exitY=0.5;exitDx=0;exitDy=0;exitPerimeter=0;entryX=0;entryY=0.5;entryDx=0;entryDy=0;entryPerimeter=0;" parent="1" source="revk8UcwppAEnoucgF0V-80" target="XGC0C7EivsoRTgifj-aX-25" edge="1">
          <mxGeometry relative="1" as="geometry" />
        </mxCell>
        <mxCell id="revk8UcwppAEnoucgF0V-80" value="" style="points=[[0.25,0,0],[0.5,0,0],[0.75,0,0],[1,0.25,0],[1,0.5,0],[1,0.75,0],[0.75,1,0],[0.5,1,0],[0.25,1,0],[0,0.75,0],[0,0.5,0],[0,0.25,0]];shape=mxgraph.bpmn.task;whiteSpace=wrap;rectStyle=rounded;size=10;html=1;container=0;expand=0;collapsible=0;taskMarker=abstract;" parent="1" vertex="1">
          <mxGeometry x="-190" y="466" width="890" height="210" as="geometry" />
        </mxCell>
        <mxCell id="XGC0C7EivsoRTgifj-aX-18" style="edgeStyle=orthogonalEdgeStyle;rounded=0;orthogonalLoop=1;jettySize=auto;html=1;exitX=1;exitY=0.5;exitDx=0;exitDy=0;exitPerimeter=0;entryX=0;entryY=0.5;entryDx=0;entryDy=0;entryPerimeter=0;" parent="1" source="revk8UcwppAEnoucgF0V-12" target="revk8UcwppAEnoucgF0V-80" edge="1">
          <mxGeometry relative="1" as="geometry" />
        </mxCell>
        <mxCell id="revk8UcwppAEnoucgF0V-12" value="&lt;div&gt;Evenement détecté&lt;/div&gt;" style="points=[[0.145,0.145,0],[0.5,0,0],[0.855,0.145,0],[1,0.5,0],[0.855,0.855,0],[0.5,1,0],[0.145,0.855,0],[0,0.5,0]];shape=mxgraph.bpmn.event;html=1;verticalLabelPosition=bottom;labelBackgroundColor=#ffffff;verticalAlign=top;align=center;perimeter=ellipsePerimeter;outlineConnect=0;aspect=fixed;outline=standard;symbol=general;" parent="1" vertex="1">
          <mxGeometry x="-281" y="546" width="50" height="50" as="geometry" />
        </mxCell>
        <mxCell id="XGC0C7EivsoRTgifj-aX-23" style="edgeStyle=orthogonalEdgeStyle;rounded=0;orthogonalLoop=1;jettySize=auto;html=1;exitX=1;exitY=0.5;exitDx=0;exitDy=0;exitPerimeter=0;" parent="1" source="revk8UcwppAEnoucgF0V-35" target="XGC0C7EivsoRTgifj-aX-22" edge="1">
          <mxGeometry relative="1" as="geometry" />
        </mxCell>
        <mxCell id="revk8UcwppAEnoucgF0V-35" value="" style="points=[[0.25,0.25,0],[0.5,0,0],[0.75,0.25,0],[1,0.5,0],[0.75,0.75,0],[0.5,1,0],[0.25,0.75,0],[0,0.5,0]];shape=mxgraph.bpmn.gateway2;html=1;verticalLabelPosition=bottom;labelBackgroundColor=#ffffff;verticalAlign=top;align=center;perimeter=rhombusPerimeter;outlineConnect=0;outline=none;symbol=none;gwType=exclusive;" parent="1" vertex="1">
          <mxGeometry x="570" y="546" width="50" height="50" as="geometry" />
        </mxCell>
        <mxCell id="jQWG2q-qJjAz_GA5LOOw-15" style="edgeStyle=orthogonalEdgeStyle;rounded=0;orthogonalLoop=1;jettySize=auto;html=1;exitX=1;exitY=0.5;exitDx=0;exitDy=0;exitPerimeter=0;entryX=0;entryY=0.5;entryDx=0;entryDy=0;entryPerimeter=0;" parent="1" source="revk8UcwppAEnoucgF0V-86" target="jQWG2q-qJjAz_GA5LOOw-12" edge="1">
          <mxGeometry relative="1" as="geometry">
            <mxPoint x="1050" y="571" as="sourcePoint" />
          </mxGeometry>
        </mxCell>
        <mxCell id="revk8UcwppAEnoucgF0V-86" value="" style="points=[[0.25,0.25,0],[0.5,0,0],[0.75,0.25,0],[1,0.5,0],[0.75,0.75,0],[0.5,1,0],[0.25,0.75,0],[0,0.5,0]];shape=mxgraph.bpmn.gateway2;html=1;verticalLabelPosition=bottom;labelBackgroundColor=#ffffff;verticalAlign=top;align=center;perimeter=rhombusPerimeter;outlineConnect=0;outline=none;symbol=none;gwType=exclusive;" parent="1" vertex="1">
          <mxGeometry x="960" y="546" width="50" height="50" as="geometry" />
        </mxCell>
        <mxCell id="revk8UcwppAEnoucgF0V-94" style="edgeStyle=orthogonalEdgeStyle;rounded=0;orthogonalLoop=1;jettySize=auto;html=1;exitX=0.5;exitY=1;exitDx=0;exitDy=0;exitPerimeter=0;entryX=0.5;entryY=1;entryDx=0;entryDy=0;entryPerimeter=0;" parent="1" source="revk8UcwppAEnoucgF0V-24" target="revk8UcwppAEnoucgF0V-35" edge="1">
          <mxGeometry relative="1" as="geometry">
            <mxPoint x="925" y="551" as="targetPoint" />
            <mxPoint x="599.94" y="576" as="sourcePoint" />
            <Array as="points">
              <mxPoint x="254" y="646" />
              <mxPoint x="595" y="646" />
            </Array>
          </mxGeometry>
        </mxCell>
        <mxCell id="revk8UcwppAEnoucgF0V-95" value="" style="points=[[0.145,0.145,0],[0.5,0,0],[0.855,0.145,0],[1,0.5,0],[0.855,0.855,0],[0.5,1,0],[0.145,0.855,0],[0,0.5,0]];shape=mxgraph.bpmn.event;html=1;verticalLabelPosition=bottom;labelBackgroundColor=#ffffff;verticalAlign=top;align=center;perimeter=ellipsePerimeter;outlineConnect=0;aspect=fixed;outline=end;symbol=terminate2;" parent="1" vertex="1">
          <mxGeometry x="1150" y="546" width="50" height="50" as="geometry" />
        </mxCell>
        <mxCell id="XGC0C7EivsoRTgifj-aX-17" style="edgeStyle=orthogonalEdgeStyle;rounded=0;orthogonalLoop=1;jettySize=auto;html=1;exitX=1;exitY=0.5;exitDx=0;exitDy=0;exitPerimeter=0;entryX=0;entryY=0.5;entryDx=0;entryDy=0;entryPerimeter=0;" parent="1" source="revk8UcwppAEnoucgF0V-102" target="XGC0C7EivsoRTgifj-aX-6" edge="1">
          <mxGeometry relative="1" as="geometry" />
        </mxCell>
        <mxCell id="revk8UcwppAEnoucgF0V-102" value="Campagne de&lt;br&gt;prévention démarrée" style="points=[[0.145,0.145,0],[0.5,0,0],[0.855,0.145,0],[1,0.5,0],[0.855,0.855,0],[0.5,1,0],[0.145,0.855,0],[0,0.5,0]];shape=mxgraph.bpmn.event;html=1;verticalLabelPosition=bottom;labelBackgroundColor=#ffffff;verticalAlign=top;align=center;perimeter=ellipsePerimeter;outlineConnect=0;aspect=fixed;outline=standard;symbol=general;" parent="1" vertex="1">
          <mxGeometry x="-281" y="330" width="50" height="50" as="geometry" />
        </mxCell>
        <mxCell id="XGC0C7EivsoRTgifj-aX-13" value="" style="points=[[0.145,0.145,0],[0.5,0,0],[0.855,0.145,0],[1,0.5,0],[0.855,0.855,0],[0.5,1,0],[0.145,0.855,0],[0,0.5,0]];shape=mxgraph.bpmn.event;html=1;verticalLabelPosition=bottom;labelBackgroundColor=#ffffff;verticalAlign=top;align=center;perimeter=ellipsePerimeter;outlineConnect=0;aspect=fixed;outline=end;symbol=terminate2;" parent="1" vertex="1">
          <mxGeometry x="141" y="330" width="50" height="50" as="geometry" />
        </mxCell>
        <mxCell id="revk8UcwppAEnoucgF0V-81" value="Détection" style="text;html=1;strokeColor=none;fillColor=none;align=center;verticalAlign=middle;whiteSpace=wrap;rounded=0;" parent="1" vertex="1">
          <mxGeometry x="224.29411764705878" y="466" width="61.41176470588235" height="30" as="geometry" />
        </mxCell>
        <mxCell id="jQWG2q-qJjAz_GA5LOOw-9" style="edgeStyle=orthogonalEdgeStyle;rounded=0;orthogonalLoop=1;jettySize=auto;html=1;exitX=1;exitY=0.5;exitDx=0;exitDy=0;exitPerimeter=0;entryX=0;entryY=0.5;entryDx=0;entryDy=0;entryPerimeter=0;" parent="1" source="revk8UcwppAEnoucgF0V-32" target="revk8UcwppAEnoucgF0V-35" edge="1">
          <mxGeometry relative="1" as="geometry" />
        </mxCell>
        <mxCell id="revk8UcwppAEnoucgF0V-32" value="Evaluation de l&#39;évènement" style="points=[[0.25,0,0],[0.5,0,0],[0.75,0,0],[1,0.25,0],[1,0.5,0],[1,0.75,0],[0.75,1,0],[0.5,1,0],[0.25,1,0],[0,0.75,0],[0,0.5,0],[0,0.25,0]];shape=mxgraph.bpmn.task;whiteSpace=wrap;rectStyle=rounded;size=10;html=1;container=1;expand=0;collapsible=0;taskMarker=abstract;" parent="1" vertex="1">
          <mxGeometry x="460" y="531" width="90" height="80" as="geometry" />
        </mxCell>
        <mxCell id="jQWG2q-qJjAz_GA5LOOw-8" style="edgeStyle=orthogonalEdgeStyle;rounded=0;orthogonalLoop=1;jettySize=auto;html=1;exitX=1;exitY=0.5;exitDx=0;exitDy=0;exitPerimeter=0;entryX=0;entryY=0.5;entryDx=0;entryDy=0;entryPerimeter=0;" parent="1" source="revk8UcwppAEnoucgF0V-31" target="revk8UcwppAEnoucgF0V-32" edge="1">
          <mxGeometry relative="1" as="geometry" />
        </mxCell>
        <mxCell id="revk8UcwppAEnoucgF0V-31" value="Collecte d&#39;information" style="points=[[0.25,0,0],[0.5,0,0],[0.75,0,0],[1,0.25,0],[1,0.5,0],[1,0.75,0],[0.75,1,0],[0.5,1,0],[0.25,1,0],[0,0.75,0],[0,0.5,0],[0,0.25,0]];shape=mxgraph.bpmn.task;whiteSpace=wrap;rectStyle=rounded;size=10;html=1;container=1;expand=0;collapsible=0;taskMarker=abstract;" parent="1" vertex="1">
          <mxGeometry x="350" y="531" width="90" height="80" as="geometry" />
        </mxCell>
        <mxCell id="revk8UcwppAEnoucgF0V-24" value="" style="points=[[0.25,0.25,0],[0.5,0,0],[0.75,0.25,0],[1,0.5,0],[0.75,0.75,0],[0.5,1,0],[0.25,0.75,0],[0,0.5,0]];shape=mxgraph.bpmn.gateway2;html=1;verticalLabelPosition=bottom;labelBackgroundColor=#ffffff;verticalAlign=top;align=center;perimeter=rhombusPerimeter;outlineConnect=0;outline=none;symbol=none;gwType=exclusive;" parent="1" vertex="1">
          <mxGeometry x="229.29000000000002" y="546" width="50" height="50" as="geometry" />
        </mxCell>
        <mxCell id="revk8UcwppAEnoucgF0V-33" style="edgeStyle=orthogonalEdgeStyle;rounded=0;orthogonalLoop=1;jettySize=auto;html=1;exitX=1;exitY=0.5;exitDx=0;exitDy=0;exitPerimeter=0;entryX=0;entryY=0.5;entryDx=0;entryDy=0;entryPerimeter=0;" parent="1" source="revk8UcwppAEnoucgF0V-24" target="revk8UcwppAEnoucgF0V-31" edge="1">
          <mxGeometry relative="1" as="geometry" />
        </mxCell>
        <mxCell id="revk8UcwppAEnoucgF0V-42" value="Vrai positif" style="text;html=1;strokeColor=none;fillColor=none;align=center;verticalAlign=middle;whiteSpace=wrap;rounded=0;" parent="1" vertex="1">
          <mxGeometry x="260" y="566" width="100" height="30" as="geometry" />
        </mxCell>
        <mxCell id="revk8UcwppAEnoucgF0V-28" value="Evaluation de l&#39;évènement" style="points=[[0.25,0,0],[0.5,0,0],[0.75,0,0],[1,0.25,0],[1,0.5,0],[1,0.75,0],[0.75,1,0],[0.5,1,0],[0.25,1,0],[0,0.75,0],[0,0.5,0],[0,0.25,0]];shape=mxgraph.bpmn.task;whiteSpace=wrap;rectStyle=rounded;size=10;html=1;container=1;expand=0;collapsible=0;taskMarker=abstract;" parent="1" vertex="1">
          <mxGeometry x="114.28999999999999" y="531" width="90" height="80" as="geometry" />
        </mxCell>
        <mxCell id="revk8UcwppAEnoucgF0V-29" style="edgeStyle=orthogonalEdgeStyle;rounded=0;orthogonalLoop=1;jettySize=auto;html=1;entryX=0;entryY=0.5;entryDx=0;entryDy=0;entryPerimeter=0;" parent="1" source="revk8UcwppAEnoucgF0V-28" target="revk8UcwppAEnoucgF0V-24" edge="1">
          <mxGeometry relative="1" as="geometry" />
        </mxCell>
        <mxCell id="revk8UcwppAEnoucgF0V-27" value="Collecte d&#39;information" style="points=[[0.25,0,0],[0.5,0,0],[0.75,0,0],[1,0.25,0],[1,0.5,0],[1,0.75,0],[0.75,1,0],[0.5,1,0],[0.25,1,0],[0,0.75,0],[0,0.5,0],[0,0.25,0]];shape=mxgraph.bpmn.task;whiteSpace=wrap;rectStyle=rounded;size=10;html=1;container=1;expand=0;collapsible=0;taskMarker=abstract;" parent="1" vertex="1">
          <mxGeometry x="1" y="531" width="90" height="80" as="geometry" />
        </mxCell>
        <mxCell id="revk8UcwppAEnoucgF0V-30" style="edgeStyle=orthogonalEdgeStyle;rounded=0;orthogonalLoop=1;jettySize=auto;html=1;exitX=1;exitY=0.5;exitDx=0;exitDy=0;exitPerimeter=0;entryX=0;entryY=0.5;entryDx=0;entryDy=0;entryPerimeter=0;" parent="1" source="revk8UcwppAEnoucgF0V-27" target="revk8UcwppAEnoucgF0V-28" edge="1">
          <mxGeometry relative="1" as="geometry" />
        </mxCell>
        <mxCell id="revk8UcwppAEnoucgF0V-50" value="Notification" style="points=[[0.25,0,0],[0.5,0,0],[0.75,0,0],[1,0.25,0],[1,0.5,0],[1,0.75,0],[0.75,1,0],[0.5,1,0],[0.25,1,0],[0,0.75,0],[0,0.5,0],[0,0.25,0]];shape=mxgraph.bpmn.task;whiteSpace=wrap;rectStyle=rounded;size=10;html=1;container=1;expand=0;collapsible=0;taskMarker=abstract;" parent="1" vertex="1">
          <mxGeometry x="-110" y="531" width="90" height="80" as="geometry" />
        </mxCell>
        <mxCell id="revk8UcwppAEnoucgF0V-51" style="edgeStyle=orthogonalEdgeStyle;rounded=0;orthogonalLoop=1;jettySize=auto;html=1;exitX=1;exitY=0.5;exitDx=0;exitDy=0;exitPerimeter=0;entryX=0;entryY=0.5;entryDx=0;entryDy=0;entryPerimeter=0;" parent="1" source="revk8UcwppAEnoucgF0V-50" target="revk8UcwppAEnoucgF0V-27" edge="1">
          <mxGeometry relative="1" as="geometry" />
        </mxCell>
        <mxCell id="XGC0C7EivsoRTgifj-aX-20" style="edgeStyle=orthogonalEdgeStyle;rounded=0;orthogonalLoop=1;jettySize=auto;html=1;exitX=1;exitY=0.5;exitDx=0;exitDy=0;exitPerimeter=0;entryX=0;entryY=0.5;entryDx=0;entryDy=0;entryPerimeter=0;" parent="1" source="XGC0C7EivsoRTgifj-aX-19" target="revk8UcwppAEnoucgF0V-50" edge="1">
          <mxGeometry relative="1" as="geometry" />
        </mxCell>
        <mxCell id="XGC0C7EivsoRTgifj-aX-19" value="&lt;div&gt;&lt;br&gt;&lt;/div&gt;" style="points=[[0.145,0.145,0],[0.5,0,0],[0.855,0.145,0],[1,0.5,0],[0.855,0.855,0],[0.5,1,0],[0.145,0.855,0],[0,0.5,0]];shape=mxgraph.bpmn.event;html=1;verticalLabelPosition=bottom;labelBackgroundColor=#ffffff;verticalAlign=top;align=center;perimeter=ellipsePerimeter;outlineConnect=0;aspect=fixed;outline=standard;symbol=general;" parent="1" vertex="1">
          <mxGeometry x="-180" y="546" width="50" height="50" as="geometry" />
        </mxCell>
        <mxCell id="revk8UcwppAEnoucgF0V-43" value="Faux positifs" style="text;html=1;strokeColor=none;fillColor=none;align=center;verticalAlign=middle;whiteSpace=wrap;rounded=0;" parent="1" vertex="1">
          <mxGeometry x="200" y="611" width="60" height="30" as="geometry" />
        </mxCell>
        <mxCell id="XGC0C7EivsoRTgifj-aX-22" value="" style="points=[[0.145,0.145,0],[0.5,0,0],[0.855,0.145,0],[1,0.5,0],[0.855,0.855,0],[0.5,1,0],[0.145,0.855,0],[0,0.5,0]];shape=mxgraph.bpmn.event;html=1;verticalLabelPosition=bottom;labelBackgroundColor=#ffffff;verticalAlign=top;align=center;perimeter=ellipsePerimeter;outlineConnect=0;aspect=fixed;outline=end;symbol=terminate2;" parent="1" vertex="1">
          <mxGeometry x="640" y="546" width="50" height="50" as="geometry" />
        </mxCell>
        <mxCell id="XGC0C7EivsoRTgifj-aX-29" style="edgeStyle=orthogonalEdgeStyle;rounded=0;orthogonalLoop=1;jettySize=auto;html=1;exitX=0.5;exitY=1;exitDx=0;exitDy=0;exitPerimeter=0;entryX=0.5;entryY=1;entryDx=0;entryDy=0;entryPerimeter=0;" parent="1" source="XGC0C7EivsoRTgifj-aX-25" target="revk8UcwppAEnoucgF0V-86" edge="1">
          <mxGeometry relative="1" as="geometry">
            <Array as="points">
              <mxPoint x="757" y="646" />
              <mxPoint x="985" y="646" />
            </Array>
          </mxGeometry>
        </mxCell>
        <mxCell id="jQWG2q-qJjAz_GA5LOOw-14" style="edgeStyle=orthogonalEdgeStyle;rounded=0;orthogonalLoop=1;jettySize=auto;html=1;exitX=1;exitY=0.5;exitDx=0;exitDy=0;exitPerimeter=0;entryX=0;entryY=0.5;entryDx=0;entryDy=0;entryPerimeter=0;" parent="1" source="XGC0C7EivsoRTgifj-aX-25" target="jQWG2q-qJjAz_GA5LOOw-10" edge="1">
          <mxGeometry relative="1" as="geometry" />
        </mxCell>
        <mxCell id="XGC0C7EivsoRTgifj-aX-25" value="" style="points=[[0.25,0.25,0],[0.5,0,0],[0.75,0.25,0],[1,0.5,0],[0.75,0.75,0],[0.5,1,0],[0.25,0.75,0],[0,0.5,0]];shape=mxgraph.bpmn.gateway2;html=1;verticalLabelPosition=bottom;labelBackgroundColor=#ffffff;verticalAlign=top;align=center;perimeter=rhombusPerimeter;outlineConnect=0;outline=none;symbol=none;gwType=exclusive;" parent="1" vertex="1">
          <mxGeometry x="732" y="546" width="50" height="50" as="geometry" />
        </mxCell>
        <mxCell id="NBq_QuUXOpZ47Og0pqbb-1" value="" style="shape=datastore;html=1;labelPosition=center;verticalLabelPosition=bottom;align=center;verticalAlign=top;" parent="1" vertex="1">
          <mxGeometry x="930" y="392" width="50" height="60" as="geometry" />
        </mxCell>
        <mxCell id="NBq_QuUXOpZ47Og0pqbb-2" value="" style="edgeStyle=elbowEdgeStyle;fontSize=12;html=1;endFill=0;startFill=0;endSize=6;startSize=6;dashed=1;dashPattern=1 4;endArrow=openThin;startArrow=none;rounded=0;exitX=0.5;exitY=0;exitDx=0;exitDy=0;entryX=1;entryY=0.7;entryDx=0;entryDy=0;" parent="1" target="NBq_QuUXOpZ47Og0pqbb-1" edge="1">
          <mxGeometry width="160" relative="1" as="geometry">
            <mxPoint x="1089" y="535.5" as="sourcePoint" />
            <mxPoint x="880" y="412" as="targetPoint" />
            <Array as="points">
              <mxPoint x="1090" y="482" />
            </Array>
          </mxGeometry>
        </mxCell>
        <mxCell id="NBq_QuUXOpZ47Og0pqbb-4" value="" style="edgeStyle=elbowEdgeStyle;fontSize=12;html=1;endFill=0;startFill=0;endSize=6;startSize=6;dashed=1;dashPattern=1 4;endArrow=openThin;startArrow=none;rounded=0;exitX=0;exitY=0.7;exitDx=0;exitDy=0;entryX=0.494;entryY=0.003;entryDx=0;entryDy=0;entryPerimeter=0;" parent="1" source="NBq_QuUXOpZ47Og0pqbb-1" target="revk8UcwppAEnoucgF0V-80" edge="1">
          <mxGeometry width="160" relative="1" as="geometry">
            <mxPoint x="410" y="410" as="sourcePoint" />
            <mxPoint x="570" y="410" as="targetPoint" />
            <Array as="points">
              <mxPoint x="250" y="450" />
            </Array>
          </mxGeometry>
        </mxCell>
        <mxCell id="NBq_QuUXOpZ47Og0pqbb-5" value="" style="edgeStyle=elbowEdgeStyle;fontSize=12;html=1;endFill=0;startFill=0;endSize=6;startSize=6;dashed=1;dashPattern=1 4;endArrow=openThin;startArrow=none;rounded=0;exitX=0.15;exitY=0.95;exitDx=0;exitDy=0;entryX=0.25;entryY=0;entryDx=0;entryDy=0;exitPerimeter=0;entryPerimeter=0;" parent="1" source="NBq_QuUXOpZ47Og0pqbb-1" target="jQWG2q-qJjAz_GA5LOOw-10" edge="1">
          <mxGeometry width="160" relative="1" as="geometry">
            <mxPoint x="740" y="472" as="sourcePoint" />
            <mxPoint x="899.25" y="535.5" as="targetPoint" />
            <Array as="points">
              <mxPoint x="873" y="480" />
              <mxPoint x="900" y="480" />
              <mxPoint x="900" y="490" />
              <mxPoint x="920" y="492" />
            </Array>
          </mxGeometry>
        </mxCell>
        <mxCell id="NBq_QuUXOpZ47Og0pqbb-7" value="Description des actions d&#39;amélioration à faire" style="text;html=1;strokeColor=none;fillColor=none;align=center;verticalAlign=middle;whiteSpace=wrap;rounded=0;" parent="1" vertex="1">
          <mxGeometry x="886.12" y="357" width="137.75" height="35" as="geometry" />
        </mxCell>
        <mxCell id="jQWG2q-qJjAz_GA5LOOw-11" style="edgeStyle=orthogonalEdgeStyle;rounded=0;orthogonalLoop=1;jettySize=auto;html=1;exitX=1;exitY=0.5;exitDx=0;exitDy=0;exitPerimeter=0;entryX=0;entryY=0.5;entryDx=0;entryDy=0;entryPerimeter=0;" parent="1" source="jQWG2q-qJjAz_GA5LOOw-10" target="revk8UcwppAEnoucgF0V-86" edge="1">
          <mxGeometry relative="1" as="geometry" />
        </mxCell>
        <mxCell id="jQWG2q-qJjAz_GA5LOOw-10" value="Réponse à incident" style="points=[[0.25,0,0],[0.5,0,0],[0.75,0,0],[1,0.25,0],[1,0.5,0],[1,0.75,0],[0.75,1,0],[0.5,1,0],[0.25,1,0],[0,0.75,0],[0,0.5,0],[0,0.25,0]];shape=mxgraph.bpmn.task;whiteSpace=wrap;rectStyle=rounded;size=10;html=1;container=1;expand=0;collapsible=0;taskMarker=abstract;" parent="1" vertex="1">
          <mxGeometry x="850" y="531" width="90" height="80" as="geometry" />
        </mxCell>
        <mxCell id="jQWG2q-qJjAz_GA5LOOw-16" style="edgeStyle=orthogonalEdgeStyle;rounded=0;orthogonalLoop=1;jettySize=auto;html=1;exitX=1;exitY=0.5;exitDx=0;exitDy=0;exitPerimeter=0;entryX=0;entryY=0.5;entryDx=0;entryDy=0;entryPerimeter=0;" parent="1" source="jQWG2q-qJjAz_GA5LOOw-12" target="revk8UcwppAEnoucgF0V-95" edge="1">
          <mxGeometry relative="1" as="geometry" />
        </mxCell>
        <mxCell id="jQWG2q-qJjAz_GA5LOOw-12" value="Enseignements tirés" style="points=[[0.25,0,0],[0.5,0,0],[0.75,0,0],[1,0.25,0],[1,0.5,0],[1,0.75,0],[0.75,1,0],[0.5,1,0],[0.25,1,0],[0,0.75,0],[0,0.5,0],[0,0.25,0]];shape=mxgraph.bpmn.task;whiteSpace=wrap;rectStyle=rounded;size=10;html=1;container=1;expand=0;collapsible=0;taskMarker=abstract;" parent="1" vertex="1">
          <mxGeometry x="1030" y="531" width="90" height="80" as="geometry" />
        </mxCell>
        <mxCell id="XGC0C7EivsoRTgifj-aX-7" value="&lt;div&gt;Prévention&lt;/div&gt;" style="text;html=1;strokeColor=none;fillColor=none;align=center;verticalAlign=middle;whiteSpace=wrap;rounded=0;" parent="1" vertex="1">
          <mxGeometry x="-92.5" y="285" width="75" height="30" as="geometry" />
        </mxCell>
        <mxCell id="XGC0C7EivsoRTgifj-aX-9" style="edgeStyle=orthogonalEdgeStyle;rounded=0;orthogonalLoop=1;jettySize=auto;html=1;exitX=1;exitY=0.5;exitDx=0;exitDy=0;exitPerimeter=0;entryX=0;entryY=0.5;entryDx=0;entryDy=0;entryPerimeter=0;" parent="1" edge="1">
          <mxGeometry relative="1" as="geometry">
            <mxPoint x="-138.93617021276594" y="360" as="targetPoint" />
          </mxGeometry>
        </mxCell>
        <mxCell id="XGC0C7EivsoRTgifj-aX-5" style="edgeStyle=orthogonalEdgeStyle;rounded=0;orthogonalLoop=1;jettySize=auto;html=1;exitX=1;exitY=0.5;exitDx=0;exitDy=0;exitPerimeter=0;" parent="1" edge="1">
          <mxGeometry relative="1" as="geometry">
            <mxPoint x="-49.57446808510639" y="360" as="targetPoint" />
          </mxGeometry>
        </mxCell>
        <mxCell id="XGC0C7EivsoRTgifj-aX-10" value="" style="points=[[0.145,0.145,0],[0.5,0,0],[0.855,0.145,0],[1,0.5,0],[0.855,0.855,0],[0.5,1,0],[0.145,0.855,0],[0,0.5,0]];shape=mxgraph.bpmn.event;html=1;verticalLabelPosition=bottom;labelBackgroundColor=#ffffff;verticalAlign=top;align=center;perimeter=ellipsePerimeter;outlineConnect=0;aspect=fixed;outline=end;symbol=terminate2;" parent="1" vertex="1">
          <mxGeometry x="10" y="330" width="50" height="50" as="geometry" />
        </mxCell>
        <mxCell id="XGC0C7EivsoRTgifj-aX-16" style="edgeStyle=orthogonalEdgeStyle;rounded=0;orthogonalLoop=1;jettySize=auto;html=1;entryX=0;entryY=0.5;entryDx=0;entryDy=0;entryPerimeter=0;" parent="1" source="jQWG2q-qJjAz_GA5LOOw-5" target="XGC0C7EivsoRTgifj-aX-10" edge="1">
          <mxGeometry relative="1" as="geometry">
            <mxPoint x="20" y="355" as="sourcePoint" />
          </mxGeometry>
        </mxCell>
        <mxCell id="XGC0C7EivsoRTgifj-aX-15" style="edgeStyle=orthogonalEdgeStyle;rounded=0;orthogonalLoop=1;jettySize=auto;html=1;exitX=1;exitY=0.5;exitDx=0;exitDy=0;exitPerimeter=0;entryX=0;entryY=0.5;entryDx=0;entryDy=0;entryPerimeter=0;" parent="1" source="XGC0C7EivsoRTgifj-aX-12" edge="1">
          <mxGeometry relative="1" as="geometry">
            <mxPoint x="-100" y="355" as="targetPoint" />
          </mxGeometry>
        </mxCell>
        <mxCell id="XGC0C7EivsoRTgifj-aX-12" value="" style="points=[[0.145,0.145,0],[0.5,0,0],[0.855,0.145,0],[1,0.5,0],[0.855,0.855,0],[0.5,1,0],[0.145,0.855,0],[0,0.5,0]];shape=mxgraph.bpmn.event;html=1;verticalLabelPosition=bottom;labelBackgroundColor=#ffffff;verticalAlign=top;align=center;perimeter=ellipsePerimeter;outlineConnect=0;aspect=fixed;outline=standard;symbol=general;" parent="1" vertex="1">
          <mxGeometry x="-170" y="330" width="50" height="50" as="geometry" />
        </mxCell>
        <mxCell id="jQWG2q-qJjAz_GA5LOOw-5" value="Education, d&#39;entraînement et sensibilisation à la sécurité" style="points=[[0.25,0,0],[0.5,0,0],[0.75,0,0],[1,0.25,0],[1,0.5,0],[1,0.75,0],[0.75,1,0],[0.5,1,0],[0.25,1,0],[0,0.75,0],[0,0.5,0],[0,0.25,0]];shape=mxgraph.bpmn.task;whiteSpace=wrap;rectStyle=rounded;size=10;html=1;container=1;expand=0;collapsible=0;taskMarker=abstract;" parent="1" vertex="1">
          <mxGeometry x="-100" y="315" width="90" height="80" as="geometry" />
        </mxCell>
        <mxCell id="jQWG2q-qJjAz_GA5LOOw-17" value="" style="edgeStyle=elbowEdgeStyle;fontSize=12;html=1;endFill=0;startFill=0;endSize=6;startSize=6;dashed=1;dashPattern=1 4;endArrow=openThin;startArrow=none;rounded=0;exitX=0;exitY=0.5;exitDx=0;exitDy=0;entryX=1;entryY=0.75;entryDx=0;entryDy=0;entryPerimeter=0;" parent="1" source="NBq_QuUXOpZ47Og0pqbb-1" target="XGC0C7EivsoRTgifj-aX-6" edge="1">
          <mxGeometry width="160" relative="1" as="geometry">
            <mxPoint x="400" y="392" as="sourcePoint" />
            <mxPoint x="560" y="392" as="targetPoint" />
            <Array as="points">
              <mxPoint x="260" y="410" />
            </Array>
          </mxGeometry>
        </mxCell>
        <mxCell id="n6X_4S1wcW-YTpLdz1-c-1" value="Incident de sécurité avéré ?" style="text;html=1;strokeColor=none;fillColor=none;align=center;verticalAlign=middle;whiteSpace=wrap;rounded=0;" parent="1" vertex="1">
          <mxGeometry x="206.44" y="516" width="95.71" height="30" as="geometry" />
        </mxCell>
        <mxCell id="n6X_4S1wcW-YTpLdz1-c-2" value="Incident de sécurité avéré ?" style="text;html=1;strokeColor=none;fillColor=none;align=center;verticalAlign=middle;whiteSpace=wrap;rounded=0;" parent="1" vertex="1">
          <mxGeometry x="709.1400000000001" y="516" width="95.71" height="30" as="geometry" />
        </mxCell>
        <mxCell id="n6X_4S1wcW-YTpLdz1-c-3" value="Faux positifs" style="text;html=1;strokeColor=none;fillColor=none;align=center;verticalAlign=middle;whiteSpace=wrap;rounded=0;" parent="1" vertex="1">
          <mxGeometry x="700" y="611" width="60" height="30" as="geometry" />
        </mxCell>
        <mxCell id="n6X_4S1wcW-YTpLdz1-c-4" value="Vrai positif" style="text;html=1;strokeColor=none;fillColor=none;align=center;verticalAlign=middle;whiteSpace=wrap;rounded=0;" parent="1" vertex="1">
          <mxGeometry x="760" y="566" width="100" height="30" as="geometry" />
        </mxCell>
      </root>
    </mxGraphModel>
  </diagram>
  <diagram id="RcvH5fwZQkUhWDDwoBzi" name="Page-2">
    <mxGraphModel dx="199" dy="578" grid="1" gridSize="10" guides="1" tooltips="1" connect="1" arrows="1" fold="1" page="1" pageScale="1" pageWidth="850" pageHeight="1100" math="0" shadow="0">
      <root>
        <mxCell id="0" />
        <mxCell id="1" parent="0" />
        <mxCell id="-Q-4WWwkmMjZFfJhgz8w-3" style="edgeStyle=orthogonalEdgeStyle;rounded=0;orthogonalLoop=1;jettySize=auto;html=1;exitX=1;exitY=0.5;exitDx=0;exitDy=0;exitPerimeter=0;entryX=0;entryY=0.5;entryDx=0;entryDy=0;entryPerimeter=0;" edge="1" target="-Q-4WWwkmMjZFfJhgz8w-36" parent="1">
          <mxGeometry relative="1" as="geometry">
            <mxPoint x="1191" y="606" as="sourcePoint" />
          </mxGeometry>
        </mxCell>
        <mxCell id="-Q-4WWwkmMjZFfJhgz8w-5" style="edgeStyle=orthogonalEdgeStyle;rounded=0;orthogonalLoop=1;jettySize=auto;html=1;exitX=1;exitY=0.5;exitDx=0;exitDy=0;exitPerimeter=0;entryX=0;entryY=0.5;entryDx=0;entryDy=0;entryPerimeter=0;" edge="1" source="-Q-4WWwkmMjZFfJhgz8w-6" parent="1">
          <mxGeometry relative="1" as="geometry">
            <mxPoint x="1101" y="606" as="targetPoint" />
          </mxGeometry>
        </mxCell>
        <mxCell id="-Q-4WWwkmMjZFfJhgz8w-6" value="&lt;div&gt;Evenement détecté&lt;/div&gt;" style="points=[[0.145,0.145,0],[0.5,0,0],[0.855,0.145,0],[1,0.5,0],[0.855,0.855,0],[0.5,1,0],[0.145,0.855,0],[0,0.5,0]];shape=mxgraph.bpmn.event;html=1;verticalLabelPosition=bottom;labelBackgroundColor=#ffffff;verticalAlign=top;align=center;perimeter=ellipsePerimeter;outlineConnect=0;aspect=fixed;outline=standard;symbol=general;" vertex="1" parent="1">
          <mxGeometry x="1020" y="581" width="50" height="50" as="geometry" />
        </mxCell>
        <mxCell id="-Q-4WWwkmMjZFfJhgz8w-9" style="edgeStyle=orthogonalEdgeStyle;rounded=0;orthogonalLoop=1;jettySize=auto;html=1;exitX=1;exitY=0.5;exitDx=0;exitDy=0;exitPerimeter=0;entryX=0;entryY=0.5;entryDx=0;entryDy=0;entryPerimeter=0;" edge="1" source="-Q-4WWwkmMjZFfJhgz8w-10" target="-Q-4WWwkmMjZFfJhgz8w-45" parent="1">
          <mxGeometry relative="1" as="geometry">
            <mxPoint x="1531" y="606" as="sourcePoint" />
          </mxGeometry>
        </mxCell>
        <mxCell id="-Q-4WWwkmMjZFfJhgz8w-10" value="" style="points=[[0.25,0.25,0],[0.5,0,0],[0.75,0.25,0],[1,0.5,0],[0.75,0.75,0],[0.5,1,0],[0.25,0.75,0],[0,0.5,0]];shape=mxgraph.bpmn.gateway2;html=1;verticalLabelPosition=bottom;labelBackgroundColor=#ffffff;verticalAlign=top;align=center;perimeter=rhombusPerimeter;outlineConnect=0;outline=none;symbol=none;gwType=exclusive;" vertex="1" parent="1">
          <mxGeometry x="1441" y="581" width="50" height="50" as="geometry" />
        </mxCell>
        <mxCell id="-Q-4WWwkmMjZFfJhgz8w-12" value="" style="points=[[0.145,0.145,0],[0.5,0,0],[0.855,0.145,0],[1,0.5,0],[0.855,0.855,0],[0.5,1,0],[0.145,0.855,0],[0,0.5,0]];shape=mxgraph.bpmn.event;html=1;verticalLabelPosition=bottom;labelBackgroundColor=#ffffff;verticalAlign=top;align=center;perimeter=ellipsePerimeter;outlineConnect=0;aspect=fixed;outline=end;symbol=terminate2;" vertex="1" parent="1">
          <mxGeometry x="1631" y="581" width="50" height="50" as="geometry" />
        </mxCell>
        <mxCell id="-Q-4WWwkmMjZFfJhgz8w-59" style="edgeStyle=orthogonalEdgeStyle;rounded=0;orthogonalLoop=1;jettySize=auto;html=1;exitX=1;exitY=0.5;exitDx=0;exitDy=0;exitPerimeter=0;entryX=0;entryY=0.5;entryDx=0;entryDy=0;entryPerimeter=0;" edge="1" parent="1" source="-Q-4WWwkmMjZFfJhgz8w-14" target="-Q-4WWwkmMjZFfJhgz8w-57">
          <mxGeometry relative="1" as="geometry" />
        </mxCell>
        <mxCell id="-Q-4WWwkmMjZFfJhgz8w-14" value="Campagne de&lt;br&gt;prévention démarrée" style="points=[[0.145,0.145,0],[0.5,0,0],[0.855,0.145,0],[1,0.5,0],[0.855,0.855,0],[0.5,1,0],[0.145,0.855,0],[0,0.5,0]];shape=mxgraph.bpmn.event;html=1;verticalLabelPosition=bottom;labelBackgroundColor=#ffffff;verticalAlign=top;align=center;perimeter=ellipsePerimeter;outlineConnect=0;aspect=fixed;outline=standard;symbol=general;" vertex="1" parent="1">
          <mxGeometry x="1020.5" y="402" width="50" height="50" as="geometry" />
        </mxCell>
        <mxCell id="-Q-4WWwkmMjZFfJhgz8w-15" value="" style="points=[[0.145,0.145,0],[0.5,0,0],[0.855,0.145,0],[1,0.5,0],[0.855,0.855,0],[0.5,1,0],[0.145,0.855,0],[0,0.5,0]];shape=mxgraph.bpmn.event;html=1;verticalLabelPosition=bottom;labelBackgroundColor=#ffffff;verticalAlign=top;align=center;perimeter=ellipsePerimeter;outlineConnect=0;aspect=fixed;outline=end;symbol=terminate2;" vertex="1" parent="1">
          <mxGeometry x="1221.5" y="402" width="50" height="50" as="geometry" />
        </mxCell>
        <mxCell id="-Q-4WWwkmMjZFfJhgz8w-19" style="edgeStyle=orthogonalEdgeStyle;rounded=0;orthogonalLoop=1;jettySize=auto;html=1;exitX=1;exitY=0.5;exitDx=0;exitDy=0;exitPerimeter=0;entryX=0;entryY=0.5;entryDx=0;entryDy=0;entryPerimeter=0;" edge="1" target="-Q-4WWwkmMjZFfJhgz8w-18" parent="1">
          <mxGeometry relative="1" as="geometry">
            <mxPoint x="921" y="606" as="sourcePoint" />
          </mxGeometry>
        </mxCell>
        <mxCell id="-Q-4WWwkmMjZFfJhgz8w-27" style="edgeStyle=orthogonalEdgeStyle;rounded=0;orthogonalLoop=1;jettySize=auto;html=1;exitX=1;exitY=0.5;exitDx=0;exitDy=0;exitPerimeter=0;entryX=0;entryY=0.5;entryDx=0;entryDy=0;entryPerimeter=0;" edge="1" target="-Q-4WWwkmMjZFfJhgz8w-24" parent="1">
          <mxGeometry relative="1" as="geometry">
            <mxPoint x="572" y="606" as="sourcePoint" />
          </mxGeometry>
        </mxCell>
        <mxCell id="-Q-4WWwkmMjZFfJhgz8w-29" style="edgeStyle=orthogonalEdgeStyle;rounded=0;orthogonalLoop=1;jettySize=auto;html=1;exitX=1;exitY=0.5;exitDx=0;exitDy=0;exitPerimeter=0;entryX=0;entryY=0.5;entryDx=0;entryDy=0;entryPerimeter=0;" edge="1" target="-Q-4WWwkmMjZFfJhgz8w-26" parent="1">
          <mxGeometry relative="1" as="geometry">
            <mxPoint x="461" y="606" as="sourcePoint" />
          </mxGeometry>
        </mxCell>
        <mxCell id="-Q-4WWwkmMjZFfJhgz8w-30" style="edgeStyle=orthogonalEdgeStyle;rounded=0;orthogonalLoop=1;jettySize=auto;html=1;exitX=1;exitY=0.5;exitDx=0;exitDy=0;exitPerimeter=0;entryX=0;entryY=0.5;entryDx=0;entryDy=0;entryPerimeter=0;" edge="1" target="-Q-4WWwkmMjZFfJhgz8w-28" parent="1">
          <mxGeometry relative="1" as="geometry">
            <mxPoint x="351" y="606" as="sourcePoint" />
          </mxGeometry>
        </mxCell>
        <mxCell id="-Q-4WWwkmMjZFfJhgz8w-34" style="edgeStyle=orthogonalEdgeStyle;rounded=0;orthogonalLoop=1;jettySize=auto;html=1;exitX=0.5;exitY=1;exitDx=0;exitDy=0;exitPerimeter=0;entryX=0.5;entryY=1;entryDx=0;entryDy=0;entryPerimeter=0;" edge="1" source="-Q-4WWwkmMjZFfJhgz8w-36" target="-Q-4WWwkmMjZFfJhgz8w-10" parent="1">
          <mxGeometry relative="1" as="geometry">
            <Array as="points">
              <mxPoint x="1250" y="670" />
              <mxPoint x="1466" y="670" />
            </Array>
          </mxGeometry>
        </mxCell>
        <mxCell id="-Q-4WWwkmMjZFfJhgz8w-35" style="edgeStyle=orthogonalEdgeStyle;rounded=0;orthogonalLoop=1;jettySize=auto;html=1;exitX=1;exitY=0.5;exitDx=0;exitDy=0;exitPerimeter=0;entryX=0;entryY=0.5;entryDx=0;entryDy=0;entryPerimeter=0;" edge="1" source="-Q-4WWwkmMjZFfJhgz8w-36" target="-Q-4WWwkmMjZFfJhgz8w-43" parent="1">
          <mxGeometry relative="1" as="geometry" />
        </mxCell>
        <mxCell id="-Q-4WWwkmMjZFfJhgz8w-36" value="" style="points=[[0.25,0.25,0],[0.5,0,0],[0.75,0.25,0],[1,0.5,0],[0.75,0.75,0],[0.5,1,0],[0.25,0.75,0],[0,0.5,0]];shape=mxgraph.bpmn.gateway2;html=1;verticalLabelPosition=bottom;labelBackgroundColor=#ffffff;verticalAlign=top;align=center;perimeter=rhombusPerimeter;outlineConnect=0;outline=none;symbol=none;gwType=exclusive;" vertex="1" parent="1">
          <mxGeometry x="1225" y="581" width="50" height="50" as="geometry" />
        </mxCell>
        <mxCell id="-Q-4WWwkmMjZFfJhgz8w-37" value="" style="shape=datastore;html=1;labelPosition=center;verticalLabelPosition=bottom;align=center;verticalAlign=top;" vertex="1" parent="1">
          <mxGeometry x="1491" y="460" width="50" height="60" as="geometry" />
        </mxCell>
        <mxCell id="-Q-4WWwkmMjZFfJhgz8w-38" value="" style="edgeStyle=elbowEdgeStyle;fontSize=12;html=1;endFill=0;startFill=0;endSize=6;startSize=6;dashed=1;dashPattern=1 4;endArrow=openThin;startArrow=none;rounded=0;exitX=0.5;exitY=0;exitDx=0;exitDy=0;entryX=1;entryY=0.7;entryDx=0;entryDy=0;" edge="1" target="-Q-4WWwkmMjZFfJhgz8w-37" parent="1">
          <mxGeometry width="160" relative="1" as="geometry">
            <mxPoint x="1570" y="570.5" as="sourcePoint" />
            <mxPoint x="1361" y="447" as="targetPoint" />
            <Array as="points">
              <mxPoint x="1571" y="517" />
            </Array>
          </mxGeometry>
        </mxCell>
        <mxCell id="-Q-4WWwkmMjZFfJhgz8w-39" value="" style="edgeStyle=elbowEdgeStyle;fontSize=12;html=1;endFill=0;startFill=0;endSize=6;startSize=6;dashed=1;dashPattern=1 4;endArrow=openThin;startArrow=none;rounded=0;exitX=0;exitY=0.7;exitDx=0;exitDy=0;entryX=0.494;entryY=0.003;entryDx=0;entryDy=0;entryPerimeter=0;" edge="1" source="-Q-4WWwkmMjZFfJhgz8w-37" parent="1">
          <mxGeometry width="160" relative="1" as="geometry">
            <mxPoint x="891" y="445" as="sourcePoint" />
            <mxPoint x="1145.46" y="566.24" as="targetPoint" />
            <Array as="points">
              <mxPoint x="1145" y="530" />
              <mxPoint x="1114" y="540" />
              <mxPoint x="731" y="485" />
            </Array>
          </mxGeometry>
        </mxCell>
        <mxCell id="-Q-4WWwkmMjZFfJhgz8w-40" value="" style="edgeStyle=elbowEdgeStyle;fontSize=12;html=1;endFill=0;startFill=0;endSize=6;startSize=6;dashed=1;dashPattern=1 4;endArrow=openThin;startArrow=none;rounded=0;exitX=0.15;exitY=0.95;exitDx=0;exitDy=0;entryX=0.25;entryY=0;entryDx=0;entryDy=0;exitPerimeter=0;entryPerimeter=0;" edge="1" source="-Q-4WWwkmMjZFfJhgz8w-37" target="-Q-4WWwkmMjZFfJhgz8w-43" parent="1">
          <mxGeometry width="160" relative="1" as="geometry">
            <mxPoint x="1221" y="507" as="sourcePoint" />
            <mxPoint x="1380.25" y="570.5" as="targetPoint" />
            <Array as="points">
              <mxPoint x="1354" y="515" />
              <mxPoint x="1381" y="515" />
              <mxPoint x="1381" y="525" />
              <mxPoint x="1401" y="527" />
            </Array>
          </mxGeometry>
        </mxCell>
        <mxCell id="-Q-4WWwkmMjZFfJhgz8w-41" value="Description des actions d&#39;amélioration à faire" style="text;html=1;strokeColor=none;fillColor=none;align=center;verticalAlign=middle;whiteSpace=wrap;rounded=0;" vertex="1" parent="1">
          <mxGeometry x="1447.1299999999999" y="425" width="137.75" height="35" as="geometry" />
        </mxCell>
        <mxCell id="-Q-4WWwkmMjZFfJhgz8w-42" style="edgeStyle=orthogonalEdgeStyle;rounded=0;orthogonalLoop=1;jettySize=auto;html=1;exitX=1;exitY=0.5;exitDx=0;exitDy=0;exitPerimeter=0;entryX=0;entryY=0.5;entryDx=0;entryDy=0;entryPerimeter=0;" edge="1" source="-Q-4WWwkmMjZFfJhgz8w-43" target="-Q-4WWwkmMjZFfJhgz8w-10" parent="1">
          <mxGeometry relative="1" as="geometry" />
        </mxCell>
        <mxCell id="-Q-4WWwkmMjZFfJhgz8w-43" value="Réponse à incident" style="points=[[0.25,0,0],[0.5,0,0],[0.75,0,0],[1,0.25,0],[1,0.5,0],[1,0.75,0],[0.75,1,0],[0.5,1,0],[0.25,1,0],[0,0.75,0],[0,0.5,0],[0,0.25,0]];shape=mxgraph.bpmn.task;whiteSpace=wrap;rectStyle=rounded;size=10;html=1;container=1;expand=0;collapsible=0;taskMarker=abstract;" vertex="1" parent="1">
          <mxGeometry x="1331" y="566" width="90" height="80" as="geometry" />
        </mxCell>
        <mxCell id="-Q-4WWwkmMjZFfJhgz8w-44" style="edgeStyle=orthogonalEdgeStyle;rounded=0;orthogonalLoop=1;jettySize=auto;html=1;exitX=1;exitY=0.5;exitDx=0;exitDy=0;exitPerimeter=0;entryX=0;entryY=0.5;entryDx=0;entryDy=0;entryPerimeter=0;" edge="1" source="-Q-4WWwkmMjZFfJhgz8w-45" target="-Q-4WWwkmMjZFfJhgz8w-12" parent="1">
          <mxGeometry relative="1" as="geometry" />
        </mxCell>
        <mxCell id="-Q-4WWwkmMjZFfJhgz8w-45" value="Enseignements tirés" style="points=[[0.25,0,0],[0.5,0,0],[0.75,0,0],[1,0.25,0],[1,0.5,0],[1,0.75,0],[0.75,1,0],[0.5,1,0],[0.25,1,0],[0,0.75,0],[0,0.5,0],[0,0.25,0]];shape=mxgraph.bpmn.task;whiteSpace=wrap;rectStyle=rounded;size=10;html=1;container=1;expand=0;collapsible=0;taskMarker=abstract;" vertex="1" parent="1">
          <mxGeometry x="1511" y="566" width="90" height="80" as="geometry" />
        </mxCell>
        <mxCell id="-Q-4WWwkmMjZFfJhgz8w-52" value="" style="edgeStyle=elbowEdgeStyle;fontSize=12;html=1;endFill=0;startFill=0;endSize=6;startSize=6;dashed=1;dashPattern=1 4;endArrow=openThin;startArrow=none;rounded=0;exitX=0;exitY=0.5;exitDx=0;exitDy=0;entryX=0.5;entryY=1;entryDx=0;entryDy=0;entryPerimeter=0;" edge="1" source="-Q-4WWwkmMjZFfJhgz8w-37" target="-Q-4WWwkmMjZFfJhgz8w-57" parent="1">
          <mxGeometry width="160" relative="1" as="geometry">
            <mxPoint x="881" y="427" as="sourcePoint" />
            <mxPoint x="1291" y="439.5" as="targetPoint" />
            <Array as="points">
              <mxPoint x="1146" y="490" />
              <mxPoint x="1115" y="480" />
              <mxPoint x="1360" y="420" />
              <mxPoint x="741" y="445" />
            </Array>
          </mxGeometry>
        </mxCell>
        <mxCell id="-Q-4WWwkmMjZFfJhgz8w-54" value="Incident de sécurité avéré ?" style="text;html=1;strokeColor=none;fillColor=none;align=center;verticalAlign=middle;whiteSpace=wrap;rounded=0;" vertex="1" parent="1">
          <mxGeometry x="1190.14" y="551" width="95.71" height="30" as="geometry" />
        </mxCell>
        <mxCell id="-Q-4WWwkmMjZFfJhgz8w-55" value="Faux positifs" style="text;html=1;strokeColor=none;fillColor=none;align=center;verticalAlign=middle;whiteSpace=wrap;rounded=0;" vertex="1" parent="1">
          <mxGeometry x="1194" y="631" width="60" height="30" as="geometry" />
        </mxCell>
        <mxCell id="-Q-4WWwkmMjZFfJhgz8w-56" value="Vrai positif" style="text;html=1;strokeColor=none;fillColor=none;align=center;verticalAlign=middle;whiteSpace=wrap;rounded=0;" vertex="1" parent="1">
          <mxGeometry x="1247" y="601" width="100" height="30" as="geometry" />
        </mxCell>
        <mxCell id="-Q-4WWwkmMjZFfJhgz8w-58" style="edgeStyle=orthogonalEdgeStyle;rounded=0;orthogonalLoop=1;jettySize=auto;html=1;exitX=1;exitY=0.5;exitDx=0;exitDy=0;exitPerimeter=0;" edge="1" parent="1" source="-Q-4WWwkmMjZFfJhgz8w-57">
          <mxGeometry relative="1" as="geometry">
            <mxPoint x="1220.5" y="427" as="targetPoint" />
          </mxGeometry>
        </mxCell>
        <mxCell id="-Q-4WWwkmMjZFfJhgz8w-57" value="Prévention" style="points=[[0.25,0,0],[0.5,0,0],[0.75,0,0],[1,0.25,0],[1,0.5,0],[1,0.75,0],[0.75,1,0],[0.5,1,0],[0.25,1,0],[0,0.75,0],[0,0.5,0],[0,0.25,0]];shape=mxgraph.bpmn.task;whiteSpace=wrap;rectStyle=rounded;size=10;html=1;container=1;expand=0;collapsible=0;taskMarker=abstract;isLoopSub=1;" vertex="1" parent="1">
          <mxGeometry x="1100.5" y="387" width="90" height="80" as="geometry" />
        </mxCell>
        <mxCell id="-Q-4WWwkmMjZFfJhgz8w-60" value="Détection" style="points=[[0.25,0,0],[0.5,0,0],[0.75,0,0],[1,0.25,0],[1,0.5,0],[1,0.75,0],[0.75,1,0],[0.5,1,0],[0.25,1,0],[0,0.75,0],[0,0.5,0],[0,0.25,0]];shape=mxgraph.bpmn.task;whiteSpace=wrap;rectStyle=rounded;size=10;html=1;container=1;expand=0;collapsible=0;taskMarker=abstract;isLoopSub=1;" vertex="1" parent="1">
          <mxGeometry x="1104" y="566" width="90" height="80" as="geometry" />
        </mxCell>
      </root>
    </mxGraphModel>
  </diagram>
</mxfile>
